<svg width="63" height="63" viewBox="0 0 63 63" fill="none" xmlns="http://www.w3.org/2000/svg">
<g clip-path="url(#clip0)">
<path d="M62.3031 13.5031C62.894 14.227 63.123 15.1674 62.9357 16.0817L58.6078 37.0826C58.3139 38.515 57.0393 39.5529 55.5791 39.5529H17.3238L18.2349 43.9721H55.2915C56.1469 43.9721 56.8384 44.6651 56.8384 45.5189C56.8384 46.3727 56.1469 47.0657 55.2915 47.0657H18.2349C16.7732 47.0657 15.5001 46.0278 15.2047 44.5971L7.71976 8.26562L0.930771 5.31742C0.146593 4.97867 -0.212335 4.06763 0.128013 3.28333C0.468361 2.49903 1.3794 2.14022 2.1621 2.48057L8.95257 5.42717C9.87443 5.82781 10.5473 6.6553 10.7499 7.64066L11.7228 12.3646H59.9057C60.8384 12.3647 61.7138 12.7792 62.3031 13.5031ZM55.5792 36.4591L59.9057 15.4582H12.3601L16.6866 36.4591H55.5792Z" fill="#02133C"/>
<path d="M59.9054 15.458L55.579 36.4589H16.6863L12.3599 15.458H59.9054ZM48.7608 21.9421C48.7608 21.0883 48.0694 20.3953 47.214 20.3953H25.0483C24.1929 20.3953 23.5015 21.0883 23.5015 21.9421C23.5015 22.7959 24.1929 23.4889 25.0483 23.4889H47.214C48.0694 23.4889 48.7608 22.7959 48.7608 21.9421ZM47.5543 29.9747C47.5543 29.1209 46.8629 28.4279 46.0075 28.4279H26.2549C25.3995 28.4279 24.7081 29.1209 24.7081 29.9747C24.7081 30.8285 25.3995 31.5215 26.2549 31.5215H46.0075C46.8628 31.5214 47.5543 30.8285 47.5543 29.9747Z" fill="#C40B0B"/>
<path d="M45.8502 49.5667C48.9067 49.5667 51.3909 52.0523 51.3909 55.1073C51.3909 58.1622 48.9067 60.648 45.8502 60.648C42.7954 60.648 40.3096 58.1623 40.3096 55.1073C40.3096 52.0524 42.7952 49.5667 45.8502 49.5667Z" fill="#02133C"/>
<path d="M47.2144 20.3958C48.0699 20.3958 48.7613 21.0888 48.7613 21.9426C48.7613 22.7964 48.0699 23.4894 47.2144 23.4894H25.0488C24.1934 23.4894 23.502 22.7964 23.502 21.9426C23.502 21.0888 24.1934 20.3958 25.0488 20.3958H47.2144Z" fill="#02133C"/>
<path d="M46.0079 28.428C46.8633 28.428 47.5547 29.121 47.5547 29.9748C47.5547 30.8286 46.8633 31.5216 46.0079 31.5216H26.2553C25.3999 31.5216 24.7085 30.8286 24.7085 29.9748C24.7085 29.121 25.3999 28.428 26.2553 28.428H46.0079Z" fill="#02133C"/>
<path d="M26.4162 49.5664C29.4711 49.5664 31.9568 52.0521 31.9568 55.1071C31.9568 58.162 29.4712 60.6478 26.4162 60.6478C23.3612 60.6478 20.8755 58.1621 20.8755 55.1071C20.8755 52.0522 23.3613 49.5664 26.4162 49.5664Z" fill="#02133C"/>
</g>
<defs>
<clipPath id="clip0">
<rect width="63" height="63" fill="white"/>
</clipPath>
</defs>
</svg>
