<svg width="63" height="63" viewBox="0 0 63 63" fill="none" xmlns="http://www.w3.org/2000/svg">
<path d="M38.6131 21.3387H37.915C36.0982 22.615 33.8891 23.371 31.5002 23.371C29.1113 23.371 26.9022 22.615 25.0854 21.3387H24.3873L19.3066 32.5162H21.3389C21.8998 32.5162 22.355 32.9714 22.355 33.5323V45.7258C22.355 48.5273 24.6342 50.8065 27.4357 50.8065H35.5647C38.3662 50.8065 40.6453 48.5273 40.6453 45.7258V33.5323C40.6453 32.9714 41.1006 32.5162 41.6615 32.5162H43.6937L38.6131 21.3387Z" fill="#C40B0B"/>
<path d="M31.5001 18.2904C32.9135 18.2904 34.2904 17.7965 35.3787 16.8983L34.0851 15.3304C33.3596 15.9289 32.442 16.2581 31.5001 16.2581C29.2585 16.2581 27.4356 14.4352 27.4356 12.1936C27.4356 9.952 29.2585 8.12906 31.5001 8.12906C33.7417 8.12906 35.5646 9.952 35.5646 12.1936C35.5646 12.8957 35.3827 13.5877 35.0383 14.1954L36.8063 15.1973C37.3235 14.2848 37.5969 13.2463 37.5969 12.1936C37.5969 8.83121 34.8625 6.0968 31.5001 6.0968C28.1377 6.0968 25.4033 8.83121 25.4033 12.1936C25.4033 15.556 28.1377 18.2904 31.5001 18.2904Z" fill="#02133C"/>
<path d="M11.1773 20.3226C8.37586 20.3226 6.09668 22.6018 6.09668 25.4033C6.09668 28.2047 8.37586 30.4839 11.1773 30.4839C13.9788 30.4839 16.258 28.2047 16.258 25.4033C16.258 22.6018 13.9788 20.3226 11.1773 20.3226ZM14.0387 24.3871H12.1935V22.5419C13.0541 22.8487 13.7319 23.5265 14.0387 24.3871ZM10.1612 22.5419V24.3871H8.31591C8.62278 23.5265 9.30054 22.8487 10.1612 22.5419ZM8.31591 26.4194H10.1612V28.2647C9.30054 27.9578 8.62278 27.2801 8.31591 26.4194ZM12.1935 28.2647V26.4194H14.0387C13.7319 27.2801 13.0541 27.9578 12.1935 28.2647Z" fill="#02133C"/>
<path d="M51.8223 20.3226C49.0209 20.3226 46.7417 22.6018 46.7417 25.4033C46.7417 28.2047 49.0209 30.4839 51.8223 30.4839C54.6238 30.4839 56.903 28.2047 56.903 25.4033C56.903 22.6018 54.6238 20.3226 51.8223 20.3226ZM54.6838 24.3871H52.8385V22.5419C53.6991 22.8487 54.3769 23.5265 54.6838 24.3871ZM50.8062 22.5419V24.3871H48.9609C49.2678 23.5265 49.9456 22.8487 50.8062 22.5419ZM48.9609 26.4194H50.8062V28.2647C49.9456 27.9578 49.2678 27.2801 48.9609 26.4194ZM52.8385 28.2647V26.4194H54.6838C54.3769 27.2801 53.6991 27.9578 52.8385 28.2647Z" fill="#02133C"/>
<path d="M31.5001 31.5C28.6986 31.5 26.4194 33.7792 26.4194 36.5806C26.4194 39.3821 28.6986 41.6613 31.5001 41.6613C34.3015 41.6613 36.5807 39.3821 36.5807 36.5806C36.5807 33.7792 34.3015 31.5 31.5001 31.5ZM31.5001 39.629C29.8194 39.629 28.4517 38.2613 28.4517 36.5806C28.4517 34.9 29.8194 33.5323 31.5001 33.5323C33.1808 33.5323 34.5485 34.9 34.5485 36.5806C34.5485 38.2613 33.1808 39.629 31.5001 39.629Z" fill="#02133C"/>
<path d="M63 33.5323C63 19.2201 53.3823 6.74506 39.5843 3.09005C37.4301 1.17465 34.6033 0 31.5 0C28.3967 0 25.5699 1.17465 23.4157 3.09005C9.61766 6.74506 0 19.2201 0 33.5323V34.5484H2.05766C2.59621 50.3268 15.5925 63 31.5 63C47.4075 63 60.4038 50.3268 60.9423 34.5484H63V33.5323ZM31.5 2.03226C37.1029 2.03226 41.6613 6.59061 41.6613 12.1935C41.6613 17.7965 37.1029 22.3548 31.5 22.3548C25.8971 22.3548 21.3387 17.7965 21.3387 12.1935C21.3387 6.59061 25.8971 2.03226 31.5 2.03226ZM21.0095 6.00837C19.9344 7.82419 19.3065 9.93469 19.3065 12.1935C19.3065 15.6098 20.7229 18.6978 22.994 20.914L17.64 32.5161H2.04953C2.45598 20.5868 10.0058 10.1897 21.0095 6.00837ZM31.5 60.9677C16.7133 60.9677 4.62745 49.2071 4.08992 34.5484H18.9406L24.6167 22.2492C26.5769 23.5955 28.9475 24.3871 31.5 24.3871C34.0525 24.3871 36.4231 23.5955 38.3833 22.2492L44.0594 34.5484H54.871V32.5161H45.36L40.006 20.914C42.2771 18.6978 43.6935 15.6098 43.6935 12.1935C43.6935 9.93469 43.0656 7.82419 41.9905 6.00837C52.9942 10.1897 60.544 20.5868 60.9505 32.5161H56.9032V34.5484H58.9101C58.3725 49.2071 46.2867 60.9677 31.5 60.9677Z" fill="#02133C"/>
</svg>
