<svg width="76" height="76" viewBox="0 0 76 76" fill="none" xmlns="http://www.w3.org/2000/svg">
<g clip-path="url(#clip0)">
<path d="M17.1675 56.3892H19.6189V58.8405H17.1675V56.3892Z" fill="white"/>
<path d="M71.0006 9.19075L48.7383 0.281165C46.5742 -0.521996 44.303 0.560656 43.51 2.55479L41.9545 6.43415C41.7732 6.92191 41.681 7.41446 41.681 7.90102C41.681 8.70897 41.9336 9.49238 42.3771 10.1543L38.7934 18.393H37.2098L33.6285 10.1579C34.0743 9.49478 34.3269 8.71017 34.3269 7.90102C34.3269 7.41565 34.2347 6.92191 34.0426 6.40243L32.4997 2.55719C31.7037 0.557064 29.5343 -0.565685 27.2403 0.290741L5.00971 9.18955C3.46024 9.80479 2.45898 11.2818 2.45898 12.951C2.45898 13.4364 2.55115 13.9301 2.74326 14.4502L4.28674 18.2948C4.86847 19.7587 6.22044 20.7205 7.77469 20.8246L18.9753 46.5838H15.9416C13.9145 46.5838 12.2645 48.2338 12.2645 50.2609C12.2645 51.255 12.6529 52.179 13.3358 52.8445C13.5638 53.0791 13.8247 53.2629 14.0994 53.4245C12.9916 54.5682 12.3016 56.1212 12.3016 57.8359C12.3016 58.3111 12.3519 58.7635 12.453 59.216L16.1845 76.0004H54.9051L60.2255 53.8254C65.017 53.1707 68.6462 49.0843 68.6462 44.1325C68.6462 39.9323 65.9656 36.2552 62.1167 34.8985L68.2332 20.8246C69.7875 20.7205 71.1406 19.7587 71.7218 18.2984L73.2766 14.4197C73.4568 13.9301 73.5489 13.4376 73.5489 12.951C73.5489 11.2818 72.5477 9.80479 71.0006 9.19075ZM42.3675 16.3264L46.108 17.904L47.0608 15.6454L43.3454 14.0773L44.373 11.7181L65.7914 20.2902L64.5992 23.0348L49.338 16.6119L48.3882 18.8724L63.6219 25.2827L62.4184 28.0513L47.7921 21.8983C47.7005 19.952 46.1008 18.393 44.1324 18.393H41.468L42.3675 16.3264ZM29.4475 48.6049C30.818 46.5719 33.1 45.3581 35.5526 45.3581C38.0052 45.3581 40.2878 46.5719 41.6577 48.6049C42.4752 49.815 42.9067 51.2352 42.9067 52.7123C42.9067 54.1893 42.4752 55.6101 41.6577 56.8196C40.2878 58.8533 38.0052 60.0664 35.5526 60.0664C31.4967 60.0664 28.1984 56.7682 28.1984 52.7123C28.1984 51.2352 28.63 49.815 29.4475 48.6049ZM31.8755 42.9068C30.4404 42.9068 29.1704 42.1018 28.5563 40.7947C28.5037 40.6858 28.4791 40.5685 28.4372 40.4554H42.6787C42.1748 41.8858 40.8282 42.9068 39.2308 42.9068H31.8755ZM18.8759 40.2076L23.5949 38.226C24.0103 39.192 24.835 39.9311 25.844 40.2597C25.8674 40.3931 25.8895 40.5278 25.9212 40.6589L20.1333 43.0995L18.8759 40.2076ZM44.1324 20.8444C44.8081 20.8444 45.3581 21.395 45.3581 22.0701V28.1985H34.3269C32.2998 28.1985 30.6498 29.8485 30.6498 31.8756C30.6498 32.8696 31.0382 33.7937 31.7211 34.4592C32.4088 35.1642 33.3328 35.5526 34.3269 35.5526H45.3581V36.7783C45.3581 37.454 44.8081 38.004 44.1324 38.004H26.9728C26.2977 38.004 25.7471 37.454 25.7471 36.7783V30.5763C25.7471 30.0029 25.8781 29.4415 26.1319 28.9424L29.1584 22.878C29.7808 21.6421 31.0741 20.8444 32.4519 20.8444H44.1324ZM49.3553 46.5838H43.191C42.6889 45.9578 42.1185 45.4036 41.4913 44.9254C43.1712 44.2635 44.4658 42.8822 45.0247 41.1885L49.1171 42.9104C49.0645 43.3137 49.0352 43.7195 49.0352 44.1325C49.0352 44.9709 49.1507 45.7884 49.3553 46.5838ZM45.3581 33.1013H34.3269C33.9995 33.1013 33.6979 32.9762 33.4543 32.7266C33.2263 32.5046 33.1012 32.2029 33.1012 31.8756C33.1012 31.2005 33.6518 30.6499 34.3269 30.6499H45.3581V33.1013ZM23.9438 27.8394C23.6219 28.4732 23.416 29.1728 23.3364 29.8928L15.7722 33.0695L14.5686 30.301L24.8829 25.9578L23.9438 27.8394ZM23.2957 32.568V35.6951L17.8992 37.9615L16.7495 35.3174L23.2957 32.568ZM44.6202 49.0352H50.3674C50.9299 50.0024 51.6457 50.8642 52.4944 51.5811L50.6445 56.3893H44.6202C45.0912 55.2289 45.3581 53.9906 45.3581 52.7123C45.3581 51.4339 45.0912 50.1963 44.6202 49.0352ZM49.7485 40.517L46.8106 39.2812C47.4258 38.6228 47.8095 37.7467 47.8095 36.7783V36.2846L51.3896 37.7945C50.6983 38.6061 50.1417 39.523 49.7485 40.517ZM53.4328 35.9955L47.8095 33.6237V30.4979L57.2218 34.4592C55.8548 34.6836 54.5825 35.2229 53.4328 35.9955ZM60.2381 33.0695L47.8095 27.8382V24.5657L61.4417 30.3022L60.2381 33.0695ZM32.4519 18.393C30.1561 18.393 28.0033 19.7204 26.9656 21.7834L26.5634 22.5901L13.5907 28.0513L12.3872 25.2839L33.6416 16.3264L34.5411 18.393H32.4519ZM6.56277 17.3846L5.03066 13.5662C4.95226 13.3556 4.91036 13.1425 4.91036 12.951C4.91036 12.2915 5.30536 11.7092 5.9182 11.4656L28.1224 2.57933C29.0615 2.23102 29.9095 2.67629 30.2231 3.46808L31.7552 7.28578C31.8336 7.49645 31.8755 7.71011 31.8755 7.90102C31.8755 8.34629 31.6966 8.76044 31.3632 9.07165C31.2286 9.20032 31.0508 9.31344 30.8707 9.38645L27.7328 10.6367L28.6395 12.9133L31.6379 11.7193L32.6697 14.0923L11.4093 23.0372L10.2165 20.2932L26.2019 13.8936L25.291 11.6188L8.64847 18.2793C8.55212 18.317 8.44798 18.3451 8.4013 18.3565C7.62926 18.463 6.84944 18.1063 6.56277 17.3846ZM21.1106 45.3486L26.9704 42.8774C27.652 43.8051 28.5659 44.5065 29.6192 44.9207C28.9902 45.4 28.4181 45.9554 27.9142 46.5838H21.6475L21.1106 45.3486ZM52.9708 73.549H18.1506L14.8445 58.6815C14.7823 58.4044 14.7512 58.1273 14.7512 57.8359C14.7512 55.6873 16.5005 53.938 18.6491 53.938C20.2303 53.938 21.6421 54.8782 22.2489 56.3343L27.3809 68.6462H34.5525C35.06 70.0694 36.4084 71.0976 38.004 71.0976C40.031 71.0976 41.681 69.4482 41.681 67.4205C41.681 67.2685 41.6541 67.1231 41.6355 66.9759L45.9063 64.8405L44.8093 62.6477L40.5487 64.7782C39.888 64.1409 38.9932 63.7435 38.004 63.7435C36.4084 63.7435 35.06 64.7717 34.5525 66.1948H29.0148L24.513 55.3905C23.5249 53.0187 21.2243 51.4866 18.6503 51.4866H15.9416C15.6142 51.4866 15.3126 51.3615 15.069 51.1119C14.841 50.8899 14.7159 50.5883 14.7159 50.2609C14.7159 49.5858 15.2665 49.0352 15.9416 49.0352H26.485C26.0146 50.1963 25.7471 51.4339 25.7471 52.7123C25.7471 58.1189 30.1459 62.5178 35.5526 62.5178C38.5456 62.5178 41.3381 61.1503 43.191 58.8407H52.3286L58.2182 43.5244C58.3637 43.1497 58.7144 42.9068 59.1106 42.9068C59.6372 42.9068 60.0664 43.3359 60.0664 43.8751C60.0664 43.9194 60.0616 43.9954 60.0394 44.0912L52.9708 73.549ZM36.7783 67.4205C36.7783 66.7455 37.3289 66.1948 38.004 66.1948C38.6796 66.1948 39.2296 66.7455 39.2296 67.4205C39.2296 68.0962 38.6796 68.6462 38.004 68.6462C37.3289 68.6462 36.7783 68.0962 36.7783 67.4205ZM66.1948 44.1325C66.1948 47.5019 63.9529 50.3321 60.8558 51.1939L62.4256 44.6507C62.4872 44.3838 62.5177 44.1229 62.5177 43.8631C62.5177 41.9839 60.9892 40.4554 59.1106 40.4554C57.6982 40.4554 56.4521 41.31 55.9309 42.6386L53.4442 49.1076C52.9414 48.5672 52.5111 47.9591 52.1903 47.2864C51.7229 46.2972 51.4865 45.2355 51.4865 44.1325C51.4865 43.5513 51.5554 42.9888 51.6984 42.4046C52.0808 40.7935 53.0067 39.3524 54.3179 38.341C55.6113 37.3187 57.1751 36.7783 58.8407 36.7783C59.3398 36.7783 59.7905 36.8226 60.2405 36.916C63.6908 37.5773 66.1948 40.6134 66.1948 44.1325ZM70.9898 13.5369L69.4439 17.3893C69.2016 17.9986 68.6192 18.393 67.9597 18.393C67.8448 18.393 67.7209 18.372 67.6718 18.3673C67.5605 18.3451 67.4558 18.3158 67.3738 18.2853L45.1462 9.38944C44.9583 9.31344 44.7806 9.20032 44.6447 9.07165L44.6387 9.06567C44.3113 8.76044 44.1324 8.34629 44.1324 7.90102C44.1324 7.71011 44.1743 7.49645 44.2401 7.31511L45.786 3.46329C46.0284 2.85403 46.6107 2.45904 47.2702 2.45904C47.4612 2.45904 47.6748 2.50093 47.8573 2.56676L70.0939 11.4668C70.7032 11.7092 71.0975 12.2915 71.0975 12.951C71.0975 13.1425 71.0557 13.3556 70.9898 13.5369Z" fill="white"/>
<path d="M38.0033 52.7118C38.0033 53.0697 37.9225 53.4145 37.7544 53.7676L39.9694 54.8191C40.2919 54.1398 40.4547 53.4312 40.4547 52.7118C40.4547 50.0079 38.2559 47.8091 35.552 47.8091C34.8326 47.8091 34.124 47.9725 33.4453 48.2945L34.4968 50.5094C36.1834 49.7063 38.0033 51.002 38.0033 52.7118Z" fill="white"/>
<path d="M35.5522 57.6144C36.2715 57.6144 36.9801 57.4516 37.6594 57.129L36.6073 54.914C34.9208 55.716 33.1008 54.4203 33.1008 52.7116C33.1008 52.3537 33.1816 52.0096 33.3498 51.6565L31.1348 50.605C30.8122 51.2837 30.6494 51.9923 30.6494 52.7116C30.6494 55.4156 32.8482 57.6144 35.5522 57.6144Z" fill="white"/>
<path d="M40.4546 23.2954H42.906V25.7468H40.4546V23.2954Z" fill="white"/>
<path d="M35.5522 23.2954H38.0036V25.7468H35.5522V23.2954Z" fill="white"/>
<path d="M30.6494 23.2954H33.1008V25.7468H30.6494V23.2954Z" fill="white"/>
</g>
<defs>
<clipPath id="clip0">
<rect width="76" height="76" fill="white"/>
</clipPath>
</defs>
</svg>
